<mxfile host="Electron" modified="2024-01-27T06:41:19.495Z" agent="Mozilla/5.0 (Windows NT 10.0; Win64; x64) AppleWebKit/537.36 (KHTML, like Gecko) draw.io/22.1.2 Chrome/114.0.5735.289 Electron/25.9.4 Safari/537.36" etag="w6qjxE4q9STsDgYp44lo" version="22.1.2" type="device">
  <diagram id="C5RBs43oDa-KdzZeNtuy" name="Page-1">
    <mxGraphModel dx="974" dy="522" grid="1" gridSize="10" guides="1" tooltips="1" connect="1" arrows="1" fold="1" page="1" pageScale="1" pageWidth="827" pageHeight="1169" math="0" shadow="0">
      <root>
        <mxCell id="WIyWlLk6GJQsqaUBKTNV-0" />
        <mxCell id="WIyWlLk6GJQsqaUBKTNV-1" parent="WIyWlLk6GJQsqaUBKTNV-0" />
        <mxCell id="Q0IHlRdOy9qcGtjSPDM7-28" value="" style="edgeStyle=orthogonalEdgeStyle;rounded=0;orthogonalLoop=1;jettySize=auto;html=1;" parent="WIyWlLk6GJQsqaUBKTNV-1" source="Q0IHlRdOy9qcGtjSPDM7-27" edge="1">
          <mxGeometry relative="1" as="geometry">
            <mxPoint x="170" y="125" as="targetPoint" />
          </mxGeometry>
        </mxCell>
        <mxCell id="Q0IHlRdOy9qcGtjSPDM7-27" value="start" style="ellipse;whiteSpace=wrap;html=1;" parent="WIyWlLk6GJQsqaUBKTNV-1" vertex="1">
          <mxGeometry x="30" y="100" width="90" height="50" as="geometry" />
        </mxCell>
        <mxCell id="Q0IHlRdOy9qcGtjSPDM7-43" value="" style="edgeStyle=orthogonalEdgeStyle;rounded=0;orthogonalLoop=1;jettySize=auto;html=1;" parent="WIyWlLk6GJQsqaUBKTNV-1" source="Q0IHlRdOy9qcGtjSPDM7-31" target="Q0IHlRdOy9qcGtjSPDM7-38" edge="1">
          <mxGeometry relative="1" as="geometry" />
        </mxCell>
        <mxCell id="Q0IHlRdOy9qcGtjSPDM7-31" value="convert grayscale apply thresholding&amp;nbsp;" style="rounded=1;whiteSpace=wrap;html=1;" parent="WIyWlLk6GJQsqaUBKTNV-1" vertex="1">
          <mxGeometry x="170" y="90" width="180" height="70" as="geometry" />
        </mxCell>
        <mxCell id="Q0IHlRdOy9qcGtjSPDM7-41" value="" style="edgeStyle=orthogonalEdgeStyle;rounded=0;orthogonalLoop=1;jettySize=auto;html=1;" parent="WIyWlLk6GJQsqaUBKTNV-1" source="Q0IHlRdOy9qcGtjSPDM7-38" target="Q0IHlRdOy9qcGtjSPDM7-40" edge="1">
          <mxGeometry relative="1" as="geometry">
            <Array as="points">
              <mxPoint x="590" y="125" />
              <mxPoint x="590" y="125" />
            </Array>
          </mxGeometry>
        </mxCell>
        <mxCell id="Q0IHlRdOy9qcGtjSPDM7-38" value="Removing Noise morphological fill opr&lt;br&gt;" style="rounded=1;whiteSpace=wrap;html=1;" parent="WIyWlLk6GJQsqaUBKTNV-1" vertex="1">
          <mxGeometry x="420" y="97.5" width="140" height="55" as="geometry" />
        </mxCell>
        <mxCell id="Q0IHlRdOy9qcGtjSPDM7-45" value="" style="edgeStyle=orthogonalEdgeStyle;rounded=0;orthogonalLoop=1;jettySize=auto;html=1;" parent="WIyWlLk6GJQsqaUBKTNV-1" source="Q0IHlRdOy9qcGtjSPDM7-40" target="Q0IHlRdOy9qcGtjSPDM7-44" edge="1">
          <mxGeometry relative="1" as="geometry">
            <Array as="points">
              <mxPoint x="710" y="250" />
            </Array>
          </mxGeometry>
        </mxCell>
        <mxCell id="Q0IHlRdOy9qcGtjSPDM7-40" value="calculate distance transform" style="rounded=1;whiteSpace=wrap;html=1;" parent="WIyWlLk6GJQsqaUBKTNV-1" vertex="1">
          <mxGeometry x="640" y="97.5" width="136" height="55" as="geometry" />
        </mxCell>
        <mxCell id="C1JUnrQvgvT_A593bzI0-3" value="" style="edgeStyle=orthogonalEdgeStyle;rounded=0;orthogonalLoop=1;jettySize=auto;html=1;" parent="WIyWlLk6GJQsqaUBKTNV-1" source="Q0IHlRdOy9qcGtjSPDM7-44" target="C1JUnrQvgvT_A593bzI0-2" edge="1">
          <mxGeometry relative="1" as="geometry" />
        </mxCell>
        <mxCell id="Q0IHlRdOy9qcGtjSPDM7-44" value="&amp;nbsp;threshold the distance tranformed img" style="rounded=1;whiteSpace=wrap;html=1;" parent="WIyWlLk6GJQsqaUBKTNV-1" vertex="1">
          <mxGeometry x="600" y="235" width="160" height="50" as="geometry" />
        </mxCell>
        <mxCell id="MTWcqnvPJ2xwTrXzg2df-2" value="" style="edgeStyle=orthogonalEdgeStyle;rounded=0;orthogonalLoop=1;jettySize=auto;html=1;" edge="1" parent="WIyWlLk6GJQsqaUBKTNV-1" source="Q0IHlRdOy9qcGtjSPDM7-46" target="C1JUnrQvgvT_A593bzI0-5">
          <mxGeometry relative="1" as="geometry" />
        </mxCell>
        <mxCell id="Q0IHlRdOy9qcGtjSPDM7-46" value="Watershed segmentation is applied&amp;nbsp;" style="rounded=1;whiteSpace=wrap;html=1;" parent="WIyWlLk6GJQsqaUBKTNV-1" vertex="1">
          <mxGeometry x="110" y="227.5" width="140" height="65" as="geometry" />
        </mxCell>
        <mxCell id="Q0IHlRdOy9qcGtjSPDM7-50" value="stop" style="ellipse;whiteSpace=wrap;html=1;rounded=1;" parent="WIyWlLk6GJQsqaUBKTNV-1" vertex="1">
          <mxGeometry x="342.5" y="357.5" width="77.5" height="45" as="geometry" />
        </mxCell>
        <mxCell id="MTWcqnvPJ2xwTrXzg2df-1" value="" style="edgeStyle=orthogonalEdgeStyle;rounded=0;orthogonalLoop=1;jettySize=auto;html=1;" edge="1" parent="WIyWlLk6GJQsqaUBKTNV-1" source="C1JUnrQvgvT_A593bzI0-2" target="Q0IHlRdOy9qcGtjSPDM7-46">
          <mxGeometry relative="1" as="geometry" />
        </mxCell>
        <mxCell id="C1JUnrQvgvT_A593bzI0-2" value="Detect Connected components ." style="rounded=1;whiteSpace=wrap;html=1;" parent="WIyWlLk6GJQsqaUBKTNV-1" vertex="1">
          <mxGeometry x="350" y="235" width="158.5" height="50" as="geometry" />
        </mxCell>
        <mxCell id="MTWcqnvPJ2xwTrXzg2df-3" value="" style="edgeStyle=orthogonalEdgeStyle;rounded=0;orthogonalLoop=1;jettySize=auto;html=1;" edge="1" parent="WIyWlLk6GJQsqaUBKTNV-1" source="C1JUnrQvgvT_A593bzI0-5" target="Q0IHlRdOy9qcGtjSPDM7-50">
          <mxGeometry relative="1" as="geometry" />
        </mxCell>
        <mxCell id="C1JUnrQvgvT_A593bzI0-5" value="Watershed boundaries are highlighted&amp;nbsp;" style="rounded=1;whiteSpace=wrap;html=1;" parent="WIyWlLk6GJQsqaUBKTNV-1" vertex="1">
          <mxGeometry x="105" y="350" width="150" height="60" as="geometry" />
        </mxCell>
      </root>
    </mxGraphModel>
  </diagram>
</mxfile>
